# 3ds Max Wavefront OBJ Exporter v0.97b - (c)2007 guruware
# File Created: 31.08.2018 17:17:18

#
# object Capsule001
#

v  0.0000 14.9606 -0.0000
v  0.5095 14.8936 -0.0000
v  0.4412 14.8936 -0.2547
v  0.2547 14.8936 -0.4412
v  -0.0000 14.8936 -0.5095
v  -0.2547 14.8936 -0.4412
v  -0.4412 14.8936 -0.2547
v  -0.5095 14.8936 -0.0000
v  -0.4412 14.8936 0.2547
v  -0.2547 14.8936 0.4412
v  -0.0000 14.8936 0.5095
v  0.2547 14.8936 0.4412
v  0.4412 14.8936 0.2547
v  0.9843 14.6969 -0.0000
v  0.8524 14.6969 -0.4921
v  0.4921 14.6969 -0.8524
v  -0.0000 14.6969 -0.9843
v  -0.4921 14.6969 -0.8524
v  -0.8524 14.6969 -0.4921
v  -0.9843 14.6969 -0.0000
v  -0.8524 14.6969 0.4921
v  -0.4921 14.6969 0.8524
v  -0.0000 14.6969 0.9843
v  0.4921 14.6969 0.8524
v  0.8524 14.6969 0.4921
v  1.3919 14.3841 -0.0000
v  1.2055 14.3841 -0.6960
v  0.6960 14.3841 -1.2055
v  -0.0000 14.3841 -1.3919
v  -0.6960 14.3841 -1.2055
v  -1.2055 14.3841 -0.6960
v  -1.3919 14.3841 -0.0000
v  -1.2055 14.3841 0.6960
v  -0.6960 14.3841 1.2055
v  -0.0000 14.3841 1.3919
v  0.6960 14.3841 1.2055
v  1.2055 14.3841 0.6960
v  1.7048 13.9764 -0.0000
v  1.4764 13.9764 -0.8524
v  0.8524 13.9764 -1.4764
v  -0.0000 13.9764 -1.7048
v  -0.8524 13.9764 -1.4764
v  -1.4764 13.9764 -0.8524
v  -1.7048 13.9764 -0.0000
v  -1.4764 13.9764 0.8524
v  -0.8524 13.9764 1.4764
v  -0.0000 13.9764 1.7048
v  0.8524 13.9764 1.4764
v  1.4764 13.9764 0.8524
v  1.9014 13.5016 -0.0000
v  1.6467 13.5016 -0.9507
v  0.9507 13.5016 -1.6467
v  -0.0000 13.5016 -1.9014
v  -0.9507 13.5016 -1.6467
v  -1.6467 13.5016 -0.9507
v  -1.9014 13.5016 -0.0000
v  -1.6467 13.5016 0.9507
v  -0.9507 13.5016 1.6467
v  -0.0000 13.5016 1.9014
v  0.9507 13.5016 1.6467
v  1.6467 13.5016 0.9507
v  1.9685 12.9921 -0.0000
v  1.7048 12.9921 -0.9843
v  0.9843 12.9921 -1.7048
v  -0.0000 12.9921 -1.9685
v  -0.9843 12.9921 -1.7048
v  -1.7048 12.9921 -0.9843
v  -1.9685 12.9921 -0.0000
v  -1.7048 12.9921 0.9843
v  -0.9843 12.9921 1.7048
v  -0.0000 12.9921 1.9685
v  0.9843 12.9921 1.7048
v  1.7048 12.9921 0.9843
v  1.9685 1.9685 -0.0000
v  1.7048 1.9685 -0.9843
v  0.9843 1.9685 -1.7048
v  -0.0000 1.9685 -1.9685
v  -0.9843 1.9685 -1.7048
v  -1.7048 1.9685 -0.9843
v  -1.9685 1.9685 -0.0000
v  -1.7048 1.9685 0.9843
v  -0.9843 1.9685 1.7048
v  -0.0000 1.9685 1.9685
v  0.9843 1.9685 1.7048
v  1.7048 1.9685 0.9843
v  1.9014 1.4590 -0.0000
v  1.6467 1.4590 -0.9507
v  0.9507 1.4590 -1.6467
v  -0.0000 1.4590 -1.9014
v  -0.9507 1.4590 -1.6467
v  -1.6467 1.4590 -0.9507
v  -1.9014 1.4590 -0.0000
v  -1.6467 1.4590 0.9507
v  -0.9507 1.4590 1.6467
v  -0.0000 1.4590 1.9014
v  0.9507 1.4590 1.6467
v  1.6467 1.4590 0.9507
v  1.7048 0.9843 -0.0000
v  1.4764 0.9843 -0.8524
v  0.8524 0.9843 -1.4764
v  -0.0000 0.9843 -1.7048
v  -0.8524 0.9843 -1.4764
v  -1.4764 0.9843 -0.8524
v  -1.7048 0.9843 -0.0000
v  -1.4764 0.9843 0.8524
v  -0.8524 0.9843 1.4764
v  -0.0000 0.9843 1.7048
v  0.8524 0.9843 1.4764
v  1.4764 0.9843 0.8524
v  1.3919 0.5766 -0.0000
v  1.2055 0.5766 -0.6960
v  0.6960 0.5766 -1.2055
v  -0.0000 0.5766 -1.3919
v  -0.6960 0.5766 -1.2055
v  -1.2055 0.5766 -0.6960
v  -1.3919 0.5766 -0.0000
v  -1.2055 0.5766 0.6960
v  -0.6960 0.5766 1.2055
v  -0.0000 0.5766 1.3919
v  0.6960 0.5766 1.2055
v  1.2055 0.5766 0.6960
v  0.9843 0.2637 -0.0000
v  0.8524 0.2637 -0.4921
v  0.4921 0.2637 -0.8524
v  -0.0000 0.2637 -0.9843
v  -0.4921 0.2637 -0.8524
v  -0.8524 0.2637 -0.4921
v  -0.9843 0.2637 -0.0000
v  -0.8524 0.2637 0.4921
v  -0.4921 0.2637 0.8524
v  -0.0000 0.2637 0.9843
v  0.4921 0.2637 0.8524
v  0.8524 0.2637 0.4921
v  0.5095 0.0671 -0.0000
v  0.4412 0.0671 -0.2547
v  0.2547 0.0671 -0.4412
v  -0.0000 0.0671 -0.5095
v  -0.2547 0.0671 -0.4412
v  -0.4412 0.0671 -0.2547
v  -0.5095 0.0671 -0.0000
v  -0.4412 0.0671 0.2547
v  -0.2547 0.0671 0.4412
v  -0.0000 0.0671 0.5095
v  0.2547 0.0671 0.4412
v  0.4412 0.0671 0.2547
v  0.0000 0.0000 -0.0000
# 146 vertices

vn 0.0000 1.0000 -0.0000
vn 0.2789 0.9603 0.0000
vn 0.2415 0.9603 -0.1394
vn 0.1394 0.9603 -0.2415
vn -0.0000 0.9603 -0.2789
vn -0.1394 0.9603 -0.2415
vn -0.2415 0.9603 -0.1394
vn -0.2789 0.9603 -0.0000
vn -0.2415 0.9603 0.1394
vn -0.1394 0.9603 0.2415
vn -0.0000 0.9603 0.2789
vn 0.1394 0.9603 0.2415
vn 0.2415 0.9603 0.1394
vn 0.5159 0.8566 0.0000
vn 0.4468 0.8566 -0.2580
vn 0.2580 0.8566 -0.4468
vn -0.0000 0.8566 -0.5159
vn -0.2580 0.8566 -0.4468
vn -0.4468 0.8566 -0.2580
vn -0.5159 0.8566 -0.0000
vn -0.4468 0.8566 0.2580
vn -0.2580 0.8566 0.4468
vn -0.0000 0.8566 0.5159
vn 0.2580 0.8566 0.4468
vn 0.4468 0.8566 0.2580
vn 0.7176 0.6965 0.0000
vn 0.6215 0.6965 -0.3588
vn 0.3588 0.6965 -0.6215
vn -0.0000 0.6965 -0.7176
vn -0.3588 0.6965 -0.6215
vn -0.6215 0.6965 -0.3588
vn -0.7176 0.6965 -0.0000
vn -0.6215 0.6965 0.3588
vn -0.3588 0.6965 0.6215
vn -0.0000 0.6965 0.7176
vn 0.3588 0.6965 0.6215
vn 0.6215 0.6965 0.3588
vn 0.8712 0.4909 0.0000
vn 0.7545 0.4909 -0.4356
vn 0.4356 0.4909 -0.7545
vn -0.0000 0.4909 -0.8712
vn -0.4356 0.4909 -0.7545
vn -0.7545 0.4909 -0.4356
vn -0.8712 0.4909 -0.0000
vn -0.7545 0.4909 0.4356
vn -0.4356 0.4909 0.7545
vn -0.0000 0.4909 0.8712
vn 0.4356 0.4909 0.7545
vn 0.7545 0.4909 0.4356
vn 0.9673 0.2536 0.0000
vn 0.8377 0.2536 -0.4837
vn 0.4837 0.2536 -0.8377
vn -0.0000 0.2536 -0.9673
vn -0.4837 0.2536 -0.8377
vn -0.8377 0.2536 -0.4837
vn -0.9673 0.2536 -0.0000
vn -0.8377 0.2536 0.4837
vn -0.4837 0.2536 0.8377
vn -0.0000 0.2536 0.9673
vn 0.4837 0.2536 0.8377
vn 0.8377 0.2536 0.4837
vn 0.9979 0.0647 0.0000
vn 0.8642 0.0647 -0.4990
vn 0.4990 0.0647 -0.8642
vn 0.0000 0.0647 -0.9979
vn -0.4989 0.0647 -0.8642
vn -0.8642 0.0647 -0.4989
vn -0.9979 0.0647 -0.0000
vn -0.8642 0.0647 0.4990
vn -0.4990 0.0647 0.8642
vn -0.0000 0.0647 0.9979
vn 0.4990 0.0647 0.8642
vn 0.8642 0.0647 0.4990
vn 0.9979 -0.0647 0.0000
vn 0.8642 -0.0647 -0.4990
vn 0.4990 -0.0647 -0.8642
vn 0.0000 -0.0647 -0.9979
vn -0.4989 -0.0647 -0.8642
vn -0.8642 -0.0647 -0.4989
vn -0.9979 -0.0647 -0.0000
vn -0.8642 -0.0647 0.4990
vn -0.4990 -0.0647 0.8642
vn -0.0000 -0.0647 0.9979
vn 0.4990 -0.0647 0.8642
vn 0.8642 -0.0647 0.4990
vn 0.9673 -0.2536 0.0000
vn 0.8377 -0.2536 -0.4837
vn 0.4837 -0.2536 -0.8377
vn -0.0000 -0.2536 -0.9673
vn -0.4837 -0.2536 -0.8377
vn -0.8377 -0.2536 -0.4837
vn -0.9673 -0.2536 -0.0000
vn -0.8377 -0.2536 0.4837
vn -0.4837 -0.2536 0.8377
vn -0.0000 -0.2536 0.9673
vn 0.4837 -0.2536 0.8377
vn 0.8377 -0.2536 0.4837
vn 0.8712 -0.4909 0.0000
vn 0.7545 -0.4909 -0.4356
vn 0.4356 -0.4909 -0.7545
vn -0.0000 -0.4909 -0.8712
vn -0.4356 -0.4909 -0.7545
vn -0.7545 -0.4909 -0.4356
vn -0.8712 -0.4909 -0.0000
vn -0.7545 -0.4909 0.4356
vn -0.4356 -0.4909 0.7545
vn -0.0000 -0.4909 0.8712
vn 0.4356 -0.4909 0.7545
vn 0.7545 -0.4909 0.4356
vn 0.7176 -0.6965 0.0000
vn 0.6215 -0.6965 -0.3588
vn 0.3588 -0.6965 -0.6215
vn -0.0000 -0.6965 -0.7176
vn -0.3588 -0.6965 -0.6215
vn -0.6215 -0.6965 -0.3588
vn -0.7176 -0.6965 -0.0000
vn -0.6215 -0.6965 0.3588
vn -0.3588 -0.6965 0.6215
vn -0.0000 -0.6965 0.7176
vn 0.3588 -0.6965 0.6215
vn 0.6215 -0.6965 0.3588
vn 0.5159 -0.8566 0.0000
vn 0.4468 -0.8566 -0.2580
vn 0.2580 -0.8566 -0.4468
vn -0.0000 -0.8566 -0.5159
vn -0.2580 -0.8566 -0.4468
vn -0.4468 -0.8566 -0.2580
vn -0.5159 -0.8566 -0.0000
vn -0.4468 -0.8566 0.2580
vn -0.2580 -0.8566 0.4468
vn -0.0000 -0.8566 0.5159
vn 0.2580 -0.8566 0.4468
vn 0.4468 -0.8566 0.2580
vn 0.2789 -0.9603 0.0000
vn 0.2415 -0.9603 -0.1394
vn 0.1394 -0.9603 -0.2415
vn -0.0000 -0.9603 -0.2789
vn -0.1394 -0.9603 -0.2415
vn -0.2415 -0.9603 -0.1394
vn -0.2789 -0.9603 -0.0000
vn -0.2415 -0.9603 0.1394
vn -0.1394 -0.9603 0.2415
vn -0.0000 -0.9603 0.2789
vn 0.1394 -0.9603 0.2415
vn 0.2415 -0.9603 0.1394
vn 0.0000 -1.0000 -0.0000
# 146 vertex normals

o Capsule001
g Capsule001
s 4
f 1//1 2//2 3//3 
f 1//1 3//3 4//4 
f 1//1 4//4 5//5 
f 1//1 5//5 6//6 
f 1//1 6//6 7//7 
f 1//1 7//7 8//8 
f 1//1 8//8 9//9 
f 1//1 9//9 10//10 
f 1//1 10//10 11//11 
f 1//1 11//11 12//12 
f 1//1 12//12 13//13 
f 1//1 13//13 2//2 
f 2//2 14//14 15//15 3//3 
f 3//3 15//15 16//16 4//4 
f 4//4 16//16 17//17 5//5 
f 5//5 17//17 18//18 6//6 
f 6//6 18//18 19//19 7//7 
f 7//7 19//19 20//20 8//8 
f 8//8 20//20 21//21 9//9 
f 9//9 21//21 22//22 10//10 
f 10//10 22//22 23//23 11//11 
f 11//11 23//23 24//24 12//12 
f 12//12 24//24 25//25 13//13 
f 13//13 25//25 14//14 2//2 
f 14//14 26//26 27//27 15//15 
f 15//15 27//27 28//28 16//16 
f 16//16 28//28 29//29 17//17 
f 17//17 29//29 30//30 18//18 
f 18//18 30//30 31//31 19//19 
f 19//19 31//31 32//32 20//20 
f 20//20 32//32 33//33 21//21 
f 21//21 33//33 34//34 22//22 
f 22//22 34//34 35//35 23//23 
f 23//23 35//35 36//36 24//24 
f 24//24 36//36 37//37 25//25 
f 25//25 37//37 26//26 14//14 
f 26//26 38//38 39//39 27//27 
f 27//27 39//39 40//40 28//28 
f 28//28 40//40 41//41 29//29 
f 29//29 41//41 42//42 30//30 
f 30//30 42//42 43//43 31//31 
f 31//31 43//43 44//44 32//32 
f 32//32 44//44 45//45 33//33 
f 33//33 45//45 46//46 34//34 
f 34//34 46//46 47//47 35//35 
f 35//35 47//47 48//48 36//36 
f 36//36 48//48 49//49 37//37 
f 37//37 49//49 38//38 26//26 
f 38//38 50//50 51//51 39//39 
f 39//39 51//51 52//52 40//40 
f 40//40 52//52 53//53 41//41 
f 41//41 53//53 54//54 42//42 
f 42//42 54//54 55//55 43//43 
f 43//43 55//55 56//56 44//44 
f 44//44 56//56 57//57 45//45 
f 45//45 57//57 58//58 46//46 
f 46//46 58//58 59//59 47//47 
f 47//47 59//59 60//60 48//48 
f 48//48 60//60 61//61 49//49 
f 49//49 61//61 50//50 38//38 
f 50//50 62//62 63//63 51//51 
f 51//51 63//63 64//64 52//52 
f 52//52 64//64 65//65 53//53 
f 53//53 65//65 66//66 54//54 
f 54//54 66//66 67//67 55//55 
f 55//55 67//67 68//68 56//56 
f 56//56 68//68 69//69 57//57 
f 57//57 69//69 70//70 58//58 
f 58//58 70//70 71//71 59//59 
f 59//59 71//71 72//72 60//60 
f 60//60 72//72 73//73 61//61 
f 61//61 73//73 62//62 50//50 
f 62//62 74//74 75//75 63//63 
f 63//63 75//75 76//76 64//64 
f 64//64 76//76 77//77 65//65 
f 65//65 77//77 78//78 66//66 
f 66//66 78//78 79//79 67//67 
f 67//67 79//79 80//80 68//68 
f 68//68 80//80 81//81 69//69 
f 69//69 81//81 82//82 70//70 
f 70//70 82//82 83//83 71//71 
f 71//71 83//83 84//84 72//72 
f 72//72 84//84 85//85 73//73 
f 73//73 85//85 74//74 62//62 
f 74//74 86//86 87//87 75//75 
f 75//75 87//87 88//88 76//76 
f 76//76 88//88 89//89 77//77 
f 77//77 89//89 90//90 78//78 
f 78//78 90//90 91//91 79//79 
f 79//79 91//91 92//92 80//80 
f 80//80 92//92 93//93 81//81 
f 81//81 93//93 94//94 82//82 
f 82//82 94//94 95//95 83//83 
f 83//83 95//95 96//96 84//84 
f 84//84 96//96 97//97 85//85 
f 85//85 97//97 86//86 74//74 
f 86//86 98//98 99//99 87//87 
f 87//87 99//99 100//100 88//88 
f 88//88 100//100 101//101 89//89 
f 89//89 101//101 102//102 90//90 
f 90//90 102//102 103//103 91//91 
f 91//91 103//103 104//104 92//92 
f 92//92 104//104 105//105 93//93 
f 93//93 105//105 106//106 94//94 
f 94//94 106//106 107//107 95//95 
f 95//95 107//107 108//108 96//96 
f 96//96 108//108 109//109 97//97 
f 97//97 109//109 98//98 86//86 
f 98//98 110//110 111//111 99//99 
f 99//99 111//111 112//112 100//100 
f 100//100 112//112 113//113 101//101 
f 101//101 113//113 114//114 102//102 
f 102//102 114//114 115//115 103//103 
f 103//103 115//115 116//116 104//104 
f 104//104 116//116 117//117 105//105 
f 105//105 117//117 118//118 106//106 
f 106//106 118//118 119//119 107//107 
f 107//107 119//119 120//120 108//108 
f 108//108 120//120 121//121 109//109 
f 109//109 121//121 110//110 98//98 
f 110//110 122//122 123//123 111//111 
f 111//111 123//123 124//124 112//112 
f 112//112 124//124 125//125 113//113 
f 113//113 125//125 126//126 114//114 
f 114//114 126//126 127//127 115//115 
f 115//115 127//127 128//128 116//116 
f 116//116 128//128 129//129 117//117 
f 117//117 129//129 130//130 118//118 
f 118//118 130//130 131//131 119//119 
f 119//119 131//131 132//132 120//120 
f 120//120 132//132 133//133 121//121 
f 121//121 133//133 122//122 110//110 
f 122//122 134//134 135//135 123//123 
f 123//123 135//135 136//136 124//124 
f 124//124 136//136 137//137 125//125 
f 125//125 137//137 138//138 126//126 
f 126//126 138//138 139//139 127//127 
f 127//127 139//139 140//140 128//128 
f 128//128 140//140 141//141 129//129 
f 129//129 141//141 142//142 130//130 
f 130//130 142//142 143//143 131//131 
f 131//131 143//143 144//144 132//132 
f 132//132 144//144 145//145 133//133 
f 133//133 145//145 134//134 122//122 
f 134//134 146//146 135//135 
f 135//135 146//146 136//136 
f 136//136 146//146 137//137 
f 137//137 146//146 138//138 
f 138//138 146//146 139//139 
f 139//139 146//146 140//140 
f 140//140 146//146 141//141 
f 141//141 146//146 142//142 
f 142//142 146//146 143//143 
f 143//143 146//146 144//144 
f 144//144 146//146 145//145 
f 145//145 146//146 134//134 
# 132 polygons - 24 triangles

