# Blender v2.90.1 OBJ File: 'complex_pyramid.blend'
# www.blender.org
v -0.750000 4.000000 0.750000
v 0.000000 5.500000 0.000000
v -0.750000 4.000000 -0.750000
v 0.750000 4.000000 0.750000
v 0.750000 4.000000 -0.750000
v -0.750000 3.250000 0.750000
v -0.750000 3.250000 -0.750000
v 0.750000 3.250000 0.750000
v 0.750000 3.250000 -0.750000
v -0.750000 2.500000 0.750000
v -0.750000 2.500000 -0.750000
v 0.750000 2.500000 0.750000
v 0.750000 2.500000 -0.750000
v -0.750000 1.750000 0.750000
v -0.750000 1.750000 -0.750000
v 0.750000 1.750000 0.750000
v 0.750000 1.750000 -0.750000
v -0.750000 1.000000 0.750000
v -0.750000 1.000000 -0.750000
v 0.750000 1.000000 0.750000
v 0.750000 1.000000 -0.750000
v -0.750000 0.250000 0.750000
v -0.750000 0.250000 -0.750000
v 0.750000 0.250000 0.750000
v 0.750000 0.250000 -0.750000
v -0.375000 1.000000 0.375000
v -0.375000 1.000000 -0.375000
v 0.375000 1.000000 -0.375000
v 0.375000 1.000000 0.375000
v 0.375000 1.750000 -0.375000
v -0.375000 1.750000 -0.375000
v -0.375000 1.750000 0.375000
v 0.375000 1.750000 0.375000
v 0.375000 2.500000 -0.375000
v -0.375000 2.500000 -0.375000
v -0.375000 2.500000 0.375000
v 0.375000 2.500000 0.375000
v 0.375000 3.250000 -0.375000
v -0.375000 3.250000 -0.375000
v -0.375000 3.250000 0.375000
v 0.375000 3.250000 0.375000
v 0.375000 4.000000 -0.375000
v -0.375000 4.000000 0.375000
v -0.375000 4.000000 -0.375000
v 0.375000 4.000000 0.375000
vn -0.8944 0.4472 0.0000
vn 0.0000 0.4472 -0.8944
vn 0.8944 0.4472 0.0000
vn 0.0000 0.4472 0.8944
vn 0.0000 -1.0000 0.0000
s off
f 1//1 2//1 3//1
f 3//2 2//2 5//2
f 5//3 2//3 4//3
f 4//4 2//4 1//4
f 5//5 45//5 42//5
f 43//1 7//1 6//1
f 44//2 9//2 7//2
f 42//3 8//3 9//3
f 45//4 6//4 8//4
f 7//5 9//5 39//5
f 40//1 11//1 10//1
f 11//2 38//2 13//2
f 38//3 12//3 13//3
f 41//4 10//4 12//4
f 13//5 37//5 34//5
f 14//1 35//1 15//1
f 35//2 17//2 15//2
f 34//3 16//3 17//3
f 37//4 14//4 16//4
f 17//5 33//5 30//5
f 32//1 19//1 18//1
f 31//2 21//2 19//2
f 30//3 20//3 21//3
f 33//4 18//4 20//4
f 21//5 29//5 28//5
f 26//1 23//1 22//1
f 27//2 25//2 23//2
f 28//3 24//3 25//3
f 29//4 22//4 24//4
f 25//5 22//5 23//5
f 26//5 18//5 27//5
f 32//5 14//5 31//5
f 36//5 10//5 35//5
f 40//5 8//5 6//5
f 43//5 1//5 44//5
f 44//5 3//5 5//5
f 5//5 4//5 45//5
f 42//5 44//5 5//5
f 43//1 44//1 7//1
f 44//2 42//2 9//2
f 42//3 45//3 8//3
f 45//4 43//4 6//4
f 9//5 8//5 41//5
f 9//5 41//5 38//5
f 40//5 6//5 7//5
f 9//5 38//5 39//5
f 39//5 40//5 7//5
f 40//1 39//1 11//1
f 11//2 39//2 38//2
f 38//3 41//3 12//3
f 41//4 40//4 10//4
f 35//5 11//5 13//5
f 13//5 12//5 37//5
f 34//5 35//5 13//5
f 14//1 36//1 35//1
f 35//2 34//2 17//2
f 34//3 37//3 16//3
f 37//4 36//4 14//4
f 31//5 15//5 17//5
f 17//5 16//5 33//5
f 30//5 31//5 17//5
f 32//1 31//1 19//1
f 31//2 30//2 21//2
f 30//3 33//3 20//3
f 33//4 32//4 18//4
f 27//5 19//5 21//5
f 21//5 20//5 29//5
f 28//5 27//5 21//5
f 26//1 27//1 23//1
f 27//2 28//2 25//2
f 28//3 29//3 24//3
f 29//4 26//4 22//4
f 25//5 24//5 22//5
f 26//5 29//5 20//5
f 18//5 19//5 27//5
f 26//5 20//5 18//5
f 32//5 33//5 16//5
f 14//5 15//5 31//5
f 32//5 16//5 14//5
f 36//5 37//5 12//5
f 10//5 11//5 35//5
f 36//5 12//5 10//5
f 40//5 41//5 8//5
f 43//5 45//5 4//5
f 1//5 3//5 44//5
f 43//5 4//5 1//5
