# Blender v2.91.2 OBJ File: ''
# www.blender.org
mtllib complex_pyramid_scale_0_8.mtl
o complex_pyramid
v -0.800000 4.000000 0.800001
v 0.000000 5.600000 0.000001
v -0.800000 4.000000 -0.799999
v 0.800000 4.000000 -0.799999
v 0.800000 4.000000 0.800001
v 0.400000 4.000000 0.400001
v 0.400000 4.000000 -0.399999
v -0.400000 4.000000 0.400001
v -0.800000 3.200000 -0.799999
v -0.800000 3.200000 0.800001
v -0.400000 4.000000 -0.399999
v 0.800000 3.200000 -0.799999
v 0.800000 3.200000 0.800001
v -0.400000 3.200000 -0.399999
v -0.400000 3.200000 0.400001
v -0.800000 2.400000 -0.800000
v -0.800000 2.400000 0.800000
v 0.400000 3.200000 -0.399999
v 0.800000 2.400000 -0.800000
v 0.800000 2.400000 0.800000
v 0.400000 3.200000 0.400001
v 0.400000 2.400000 0.400000
v 0.400000 2.400000 -0.400000
v -0.800000 1.600000 0.800000
v -0.400000 2.400000 -0.400000
v -0.800000 1.600000 -0.800000
v 0.800000 1.600000 -0.800000
v 0.800000 1.600000 0.800000
v 0.400000 1.600000 0.400000
v 0.400000 1.600000 -0.400000
v -0.400000 1.600000 0.400000
v -0.800000 0.800000 -0.800000
v -0.800000 0.800000 0.800000
v -0.400000 1.600000 -0.400000
v 0.800000 0.800000 -0.800000
v 0.800000 0.800000 0.800000
v 0.400000 0.800000 0.400000
v 0.400000 0.800000 -0.400000
v -0.400000 0.800000 0.400000
v -0.800000 0.000000 -0.800000
v -0.800000 -0.000000 0.800000
v -0.400000 0.800000 -0.400000
v 0.800000 0.000000 -0.800000
v 0.800000 -0.000000 0.800000
v -0.400000 2.400000 0.400000
vn -0.8944 0.4472 0.0000
vn 0.0000 0.4472 -0.8944
vn 0.8944 0.4472 0.0000
vn 0.0000 0.4472 0.8944
vn -0.0000 -1.0000 0.0000
usemtl Default_OBJ
s 1
f 1//1 2//1 3//1
f 3//2 2//2 4//2
f 4//3 2//3 5//3
f 5//4 2//4 1//4
f 4//5 6//5 7//5
f 8//1 9//1 10//1
f 11//2 12//2 9//2
f 7//3 13//3 12//3
f 6//4 10//4 13//4
f 9//5 12//5 14//5
f 15//1 16//1 17//1
f 16//2 18//2 19//2
f 18//3 20//3 19//3
f 21//4 17//4 20//4
f 19//5 22//5 23//5
f 24//1 25//1 26//1
f 25//2 27//2 26//2
f 23//3 28//3 27//3
f 22//4 24//4 28//4
f 27//5 29//5 30//5
f 31//1 32//1 33//1
f 34//2 35//2 32//2
f 30//3 36//3 35//3
f 29//4 33//4 36//4
f 35//5 37//5 38//5
f 39//1 40//1 41//1
f 42//2 43//2 40//2
f 38//3 44//3 43//3
f 37//4 41//4 44//4
f 43//5 41//5 40//5
f 39//5 33//5 42//5
f 31//5 24//5 34//5
f 45//5 17//5 25//5
f 15//5 13//5 10//5
f 8//5 1//5 11//5
f 11//5 3//5 4//5
f 4//5 5//5 6//5
f 7//5 11//5 4//5
f 8//1 11//1 9//1
f 11//2 7//2 12//2
f 7//3 6//3 13//3
f 6//4 8//4 10//4
f 12//5 13//5 21//5
f 12//5 21//5 18//5
f 15//5 10//5 9//5
f 12//5 18//5 14//5
f 14//5 15//5 9//5
f 15//1 14//1 16//1
f 16//2 14//2 18//2
f 18//3 21//3 20//3
f 21//4 15//4 17//4
f 25//5 16//5 19//5
f 19//5 20//5 22//5
f 23//5 25//5 19//5
f 24//1 45//1 25//1
f 25//2 23//2 27//2
f 23//3 22//3 28//3
f 22//4 45//4 24//4
f 34//5 26//5 27//5
f 27//5 28//5 29//5
f 30//5 34//5 27//5
f 31//1 34//1 32//1
f 34//2 30//2 35//2
f 30//3 29//3 36//3
f 29//4 31//4 33//4
f 42//5 32//5 35//5
f 35//5 36//5 37//5
f 38//5 42//5 35//5
f 39//1 42//1 40//1
f 42//2 38//2 43//2
f 38//3 37//3 44//3
f 37//4 39//4 41//4
f 43//5 44//5 41//5
f 39//5 37//5 36//5
f 33//5 32//5 42//5
f 39//5 36//5 33//5
f 31//5 29//5 28//5
f 24//5 26//5 34//5
f 31//5 28//5 24//5
f 45//5 22//5 20//5
f 17//5 16//5 25//5
f 45//5 20//5 17//5
f 15//5 21//5 13//5
f 8//5 6//5 5//5
f 1//5 3//5 11//5
f 8//5 5//5 1//5
