# Blender v2.90.1 OBJ File: 'complex_pyramid.blend'
# www.blender.org
v -1.000000 2.000000 1.000000
v -1.000000 2.000000 -1.000000
v 1.000000 2.000000 1.000000
v 1.000000 2.000000 -1.000000
v -1.000000 1.000000 1.000000
v -1.000000 1.000000 -1.000000
v 1.000000 1.000000 1.000000
v 1.000000 1.000000 -1.000000
v -1.000000 0.000000 1.000000
v -1.000000 0.000000 -1.000000
v 1.000000 0.000000 1.000000
v 1.000000 0.000000 -1.000000
v -0.500000 1.000000 0.500000
v -0.500000 1.000000 -0.500000
v 0.500000 1.000000 -0.500000
v 0.500000 1.000000 0.500000
v 0.500000 2.000000 -0.500000
v -0.500000 2.000000 -0.500000
v -0.500000 2.000000 0.500000
v 0.500000 2.000000 0.500000
v -0.502500 2.995000 0.502500
v 0.492500 2.995000 0.502500
v 0.502500 2.995000 0.502500
v 0.502500 2.995000 -0.502500
v 0.502500 2.995000 -0.492500
v -0.502500 2.995000 -0.492500
v -0.502500 2.995000 -0.502500
v -0.492500 2.995000 -0.502500
vn -0.8944 0.4472 0.0000
vn 0.0000 -1.0000 0.0000
vn 0.0000 0.4472 -0.8944
vn 0.8944 0.4472 0.0000
vn 0.0000 0.4472 0.8944
vn 0.0000 1.0000 0.0000
s off
f 26//1 2//1 1//1
f 4//2 20//2 17//2
f 19//1 6//1 5//1
f 18//3 8//3 6//3
f 17//4 7//4 8//4
f 20//5 5//5 7//5
f 8//2 16//2 15//2
f 13//1 10//1 9//1
f 14//3 12//3 10//3
f 15//4 11//4 12//4
f 16//5 9//5 11//5
f 12//2 9//2 10//2
f 13//2 5//2 14//2
f 19//2 1//2 18//2
f 1//1 21//1 26//1
f 18//2 2//2 4//2
f 4//2 3//2 20//2
f 17//2 18//2 4//2
f 19//1 18//1 6//1
f 18//3 17//3 8//3
f 17//4 20//4 7//4
f 20//5 19//5 5//5
f 14//2 6//2 8//2
f 8//2 7//2 16//2
f 15//2 14//2 8//2
f 13//1 14//1 10//1
f 14//3 15//3 12//3
f 15//4 16//4 11//4
f 16//5 13//5 9//5
f 12//2 11//2 9//2
f 13//2 16//2 7//2
f 5//2 6//2 14//2
f 13//2 7//2 5//2
f 19//2 20//2 3//2
f 1//2 2//2 18//2
f 19//2 3//2 1//2
f 22//5 3//5 23//5
f 28//3 24//3 4//3
f 28//3 2//3 27//3
f 25//4 23//4 3//4
f 22//6 25//6 28//6
f 25//4 4//4 24//4
f 22//5 21//5 1//5
f 26//1 27//1 2//1
f 22//5 1//5 3//5
f 28//3 4//3 2//3
f 28//6 27//6 26//6
f 26//6 21//6 22//6
f 22//6 23//6 25//6
f 25//6 24//6 28//6
f 28//6 26//6 22//6
f 25//4 3//4 4//4
