# Blender v2.92.0 OBJ File: 'star_shape.blend'
# www.blender.org
mtllib star_shape.mtl
o Circle
v -1.902018 0.000000 -0.618003
v -3.328698 0.000000 1.081559
v -1.175512 0.000000 1.617953
v 0.000000 0.000000 3.500000
v 1.175512 0.000000 1.617953
v 3.328698 0.000000 1.081559
v 1.902018 0.000000 -0.618003
v 2.057249 0.000000 -2.831559
v -0.000000 0.000000 -1.999900
v -2.057249 0.000000 -2.831559
v -1.902018 5.000000 -0.618003
v -3.328698 5.000000 1.081559
v -1.175512 5.000000 1.617953
v 0.000000 5.000000 3.500000
v 1.175512 5.000000 1.617953
v 3.328698 5.000000 1.081559
v 1.902018 5.000000 -0.618003
v 2.057249 5.000000 -2.831559
v -0.000000 5.000000 -1.999900
v -2.057249 5.000000 -2.831559
vt 0.000000 0.000000
vt 0.000000 0.000000
vt 0.000000 0.000000
vt 0.000000 0.000000
vt 0.000000 0.000000
vt 0.000000 0.000000
vt 0.000000 0.000000
vt 0.000000 0.000000
vt 0.000000 0.000000
vt 0.000000 0.000000
vt 0.000000 0.000000
vt 0.000000 0.000000
vt 0.000000 0.000000
vt 0.000000 0.000000
vt 0.000000 0.000000
vt 0.000000 0.000000
vt 0.000000 0.000000
vt 0.000000 0.000000
vt 0.000000 0.000000
vt 0.000000 0.000000
vn 0.0000 -1.0000 0.0000
vn 0.0000 1.0000 0.0000
vn 0.8482 0.0000 0.5298
vn -0.7659 0.0000 -0.6429
vn -0.3748 0.0000 -0.9271
vn 0.2417 0.0000 0.9703
vn -0.2417 0.0000 0.9703
vn 0.3748 0.0000 -0.9271
vn 0.7659 0.0000 -0.6429
vn -0.8482 0.0000 0.5298
vn -0.9976 0.0000 0.0700
vn 0.9976 0.0000 0.0700
usemtl None
s off
f 7/1/1 5/2/1 3/3/1
f 15/4/2 17/5/2 19/6/2
f 5/2/3 14/7/3 4/8/3
f 2/9/4 11/10/4 1/11/4
f 9/12/5 18/13/5 8/14/5
f 6/15/6 15/4/6 5/2/6
f 3/3/7 12/16/7 2/9/7
f 10/17/8 19/6/8 9/12/8
f 7/1/9 16/18/9 6/15/9
f 4/8/10 13/19/10 3/3/10
f 1/11/11 20/20/11 10/17/11
f 8/14/12 17/5/12 7/1/12
f 3/3/1 2/9/1 1/11/1
f 1/11/1 10/17/1 9/12/1
f 9/12/1 8/14/1 7/1/1
f 7/1/1 6/15/1 5/2/1
f 5/2/1 4/8/1 3/3/1
f 3/3/1 1/11/1 9/12/1
f 9/12/1 7/1/1 3/3/1
f 11/10/2 12/16/2 13/19/2
f 13/19/2 14/7/2 15/4/2
f 15/4/2 16/18/2 17/5/2
f 17/5/2 18/13/2 19/6/2
f 19/6/2 20/20/2 11/10/2
f 11/10/2 13/19/2 19/6/2
f 13/19/2 15/4/2 19/6/2
f 5/2/3 15/4/3 14/7/3
f 2/9/4 12/16/4 11/10/4
f 9/12/5 19/6/5 18/13/5
f 6/15/6 16/18/6 15/4/6
f 3/3/7 13/19/7 12/16/7
f 10/17/8 20/20/8 19/6/8
f 7/1/9 17/5/9 16/18/9
f 4/8/10 14/7/10 13/19/10
f 1/11/11 11/10/11 20/20/11
f 8/14/12 18/13/12 17/5/12
