# Blender v2.91.2 OBJ File: ''
# www.blender.org
mtllib vedge_t1_v1.mtl
o Cube_Cube.001
v -1.000000 -1.414214 0.000000
v -1.000000 1.414214 0.000000
v 1.000000 -1.414214 0.000000
v 1.000000 1.414214 0.000000
v -1.000000 -1.063914 0.350300
v -1.000000 1.063914 0.350300
v 1.000000 1.063914 0.350300
v 1.000000 -1.063914 0.350300
v -1.000000 1.062828 -0.351386
v -1.000000 -1.062828 -0.351386
v 1.000000 -1.062828 -0.351386
v 1.000000 1.062828 -0.351386
vt 0.875000 0.500000
vt 0.625000 0.561925
vt 0.625000 0.500000
vt 0.436925 0.750000
vt 0.562883 0.500000
vt 0.625000 0.250000
vt 0.562883 0.250000
vt 0.375000 0.062117
vt 0.625000 0.188075
vt 0.875000 0.561925
vt 0.625000 1.000000
vt 0.625000 0.750000
vt 0.375000 1.000000
vt 0.375000 0.750000
vt 0.125000 0.687883
vt 0.375000 0.500000
vt 0.375000 0.687883
vt 0.125000 0.750000
vt 0.375000 0.000000
vt 0.436925 0.000000
vt 0.436925 1.000000
vt 0.125000 0.500000
vn 0.0000 0.7071 0.7071
vn 1.0000 0.0000 0.0000
vn 0.0000 0.7071 -0.7071
vn -1.0000 0.0000 0.0000
vn 0.0000 0.0000 1.0000
vn 0.0000 -0.7071 0.7071
vn 0.0000 0.0000 -1.0000
vn 0.0000 -0.7071 -0.7071
usemtl None
s off
f 2/1/1 7/2/1 4/3/1
f 7/2/2 8/4/2 12/5/2
f 2/6/3 12/5/3 9/7/3
f 10/8/4 6/9/4 9/7/4
f 2/1/1 6/10/1 7/2/1
f 6/11/5 8/4/5 7/12/5
f 8/4/6 1/13/6 3/14/6
f 10/15/7 12/16/7 11/17/7
f 11/17/8 1/18/8 10/15/8
f 3/14/2 11/17/2 8/4/2
f 11/17/2 12/5/2 8/4/2
f 12/5/2 4/3/2 7/2/2
f 2/6/3 4/3/3 12/5/3
f 10/8/4 1/19/4 5/20/4
f 5/20/4 6/9/4 10/8/4
f 6/9/4 2/6/4 9/7/4
f 6/11/5 5/21/5 8/4/5
f 8/4/6 5/21/6 1/13/6
f 10/15/7 9/22/7 12/16/7
f 11/17/8 3/14/8 1/18/8
