# Blender v2.79 (sub 0) OBJ File: 'capsule038.blend'
# www.blender.org
mtllib box_foot.mtl
o Cube_Cube.004
v -0.025000 -0.034000 0.032500
v -0.025000 0.006000 0.032500
v -0.025000 -0.034000 -0.112500
v -0.025000 0.006000 -0.112500
v 0.025000 -0.034000 0.032500
v 0.025000 0.006000 0.032500
v 0.025000 -0.034000 -0.112500
v 0.025000 0.006000 -0.112500
v -0.025000 -0.014000 -0.040000
v 0.000000 -0.014000 -0.112500
v 0.025000 -0.014000 -0.040000
v 0.000000 -0.014000 0.032500
v 0.000000 -0.034000 -0.040000
v 0.000000 0.006000 -0.040000
vn -0.0000 0.0000 -1.0000
vn 1.0000 0.0000 0.0000
vn 0.0000 0.0000 1.0000
vn 0.0000 -1.0000 0.0000
vn 0.0000 1.0000 0.0000
vn -1.0000 0.0000 0.0000
usemtl None
s off
f 3//1 4//1 10//1
f 7//2 8//2 11//2
f 5//3 6//3 12//3
f 3//4 7//4 13//4
f 8//5 4//5 14//5
f 1//6 2//6 9//6
f 2//6 4//6 9//6
f 4//6 3//6 9//6
f 3//6 1//6 9//6
f 4//1 8//1 10//1
f 8//1 7//1 10//1
f 7//1 3//1 10//1
f 8//2 6//2 11//2
f 6//2 5//2 11//2
f 5//2 7//2 11//2
f 6//3 2//3 12//3
f 2//3 1//3 12//3
f 1//3 5//3 12//3
f 7//4 5//4 13//4
f 5//4 1//4 13//4
f 1//4 3//4 13//4
f 4//5 2//5 14//5
f 2//5 6//5 14//5
f 6//5 8//5 14//5
